<svg width="1600" height="1760" viewBox="0 0 1600 1760" fill="none" xmlns="http://www.w3.org/2000/svg" role="img" aria-labelledby="title desc">
  <title id="title">CouponsWorld.in logo</title>
  <desc id="desc">A premium coupon ticket logo with a serif wordmark for CouponsWorld.in.</desc>
  <defs>
    <linearGradient id="bg" x1="0" y1="0" x2="1600" y2="1760" gradientUnits="userSpaceOnUse">
      <stop stop-color="#050505"/>
      <stop offset="1" stop-color="#707070"/>
    </linearGradient>
    <radialGradient id="glow" cx="0" cy="0" r="1" gradientUnits="userSpaceOnUse" gradientTransform="translate(800 520) rotate(90) scale(340 340)">
      <stop stop-color="#FFFFFF" stop-opacity="0.14"/>
      <stop offset="1" stop-color="#FFFFFF" stop-opacity="0"/>
    </radialGradient>
    <filter id="shadow" x="310" y="220" width="980" height="900" filterUnits="userSpaceOnUse">
      <feDropShadow dx="0" dy="24" stdDeviation="24" flood-color="#000000" flood-opacity="0.30"/>
    </filter>
  </defs>

  <rect width="1600" height="1760" fill="url(#bg)"/>
  <circle cx="800" cy="490" r="340" fill="url(#glow)"/>

  <g filter="url(#shadow)" transform="translate(0 0)">
    <path
      d="M560 250H1040C1068 250 1092 274 1092 302V340C1048 340 1012 376 1012 420C1012 464 1048 500 1092 500V620C1048 620 1012 656 1012 700C1012 744 1048 780 1092 780V818C1092 846 1068 870 1040 870H560C532 870 508 846 508 818V780C552 780 588 744 588 700C588 656 552 620 508 620V500C552 500 588 464 588 420C588 376 552 340 508 340V302C508 274 532 250 560 250Z"
      fill="#2A2A2A"
      stroke="#F8F8F8"
      stroke-width="18"
      stroke-linejoin="round"
    />

    <rect x="666" y="344" width="268" height="248" rx="4" fill="#FF3131"/>
    <rect x="648" y="326" width="304" height="284" rx="6" fill="none" stroke="#F8F8F8" stroke-width="12" stroke-dasharray="16 16" stroke-linejoin="round"/>

    <g fill="#F8F8F8">
      <rect x="656" y="334" width="14" height="14" />
      <rect x="694" y="334" width="14" height="14" />
      <rect x="732" y="334" width="14" height="14" />
      <rect x="770" y="334" width="14" height="14" />
      <rect x="808" y="334" width="14" height="14" />
      <rect x="846" y="334" width="14" height="14" />
      <rect x="884" y="334" width="14" height="14" />

      <rect x="656" y="594" width="14" height="14" />
      <rect x="694" y="594" width="14" height="14" />
      <rect x="732" y="594" width="14" height="14" />
      <rect x="770" y="594" width="14" height="14" />
      <rect x="808" y="594" width="14" height="14" />
      <rect x="846" y="594" width="14" height="14" />
      <rect x="884" y="594" width="14" height="14" />

      <rect x="648" y="344" width="14" height="14" />
      <rect x="648" y="382" width="14" height="14" />
      <rect x="648" y="420" width="14" height="14" />
      <rect x="648" y="458" width="14" height="14" />
      <rect x="648" y="496" width="14" height="14" />
      <rect x="648" y="534" width="14" height="14" />
      <rect x="648" y="572" width="14" height="14" />

      <rect x="938" y="344" width="14" height="14" />
      <rect x="938" y="382" width="14" height="14" />
      <rect x="938" y="420" width="14" height="14" />
      <rect x="938" y="458" width="14" height="14" />
      <rect x="938" y="496" width="14" height="14" />
      <rect x="938" y="534" width="14" height="14" />
      <rect x="938" y="572" width="14" height="14" />
    </g>

    <path d="M734 498L828 394L860 426L766 530L734 498Z" fill="#F8F8F8"/>
    <circle cx="750" cy="426" r="38" fill="#F8F8F8"/>
    <circle cx="810" cy="534" r="38" fill="#F8F8F8"/>
    <circle cx="750" cy="426" r="15" fill="#FF3131"/>
    <circle cx="810" cy="534" r="15" fill="#FF3131"/>
  </g>

  <text x="800" y="1165" text-anchor="middle" font-family="Georgia, 'Times New Roman', serif" font-size="108" font-weight="400" letter-spacing="6" fill="#F8F8F8">COUPONS WORLD</text>
  <text x="800" y="1268" text-anchor="middle" font-family="Georgia, 'Times New Roman', serif" font-size="42" font-weight="400" letter-spacing="1.5" fill="#F8F8F8">CouponsWorld.in</text>
  <text x="800" y="1352" text-anchor="middle" font-family="Georgia, 'Times New Roman', serif" font-size="34" font-weight="400" letter-spacing="1.4" fill="#D8D8D8">Best Discount Store</text>
</svg>
